<mxfile host="app.diagrams.net" modified="2023-10-08T14:10:02.821Z" agent="Mozilla/5.0 (Windows NT 10.0; Win64; x64) AppleWebKit/537.36 (KHTML, like Gecko) Chrome/116.0.5845.967 YaBrowser/23.9.1.967 Yowser/2.5 Safari/537.36" etag="wLocqqvsocjy26a1PdjN" version="22.0.4" type="google">
  <diagram name="Страница — 1" id="T70S5vizKLzcHMzY-mGA">
    <mxGraphModel dx="746" dy="703" grid="1" gridSize="10" guides="1" tooltips="1" connect="1" arrows="1" fold="1" page="1" pageScale="1" pageWidth="827" pageHeight="1169" math="0" shadow="0">
      <root>
        <mxCell id="0" />
        <mxCell id="1" parent="0" />
        <mxCell id="8dt0aiZ_KcCfcYRELFO8-1" value="Begin" style="strokeWidth=2;html=1;shape=mxgraph.flowchart.terminator;whiteSpace=wrap;" vertex="1" parent="1">
          <mxGeometry x="345" y="40" width="110" height="40" as="geometry" />
        </mxCell>
        <mxCell id="8dt0aiZ_KcCfcYRELFO8-17" style="edgeStyle=orthogonalEdgeStyle;rounded=0;orthogonalLoop=1;jettySize=auto;html=1;entryX=0.5;entryY=0;entryDx=0;entryDy=0;" edge="1" parent="1" source="8dt0aiZ_KcCfcYRELFO8-5" target="8dt0aiZ_KcCfcYRELFO8-9">
          <mxGeometry relative="1" as="geometry" />
        </mxCell>
        <mxCell id="8dt0aiZ_KcCfcYRELFO8-5" value="input(array inpArr)" style="html=1;strokeWidth=2;shape=manualInput;whiteSpace=wrap;rounded=1;size=13;arcSize=0;" vertex="1" parent="1">
          <mxGeometry x="335" y="120" width="130" height="60" as="geometry" />
        </mxCell>
        <mxCell id="8dt0aiZ_KcCfcYRELFO8-6" value="output(resArr)" style="strokeWidth=2;html=1;shape=mxgraph.flowchart.display;whiteSpace=wrap;" vertex="1" parent="1">
          <mxGeometry x="335" y="700" width="130" height="60" as="geometry" />
        </mxCell>
        <mxCell id="8dt0aiZ_KcCfcYRELFO8-18" style="edgeStyle=orthogonalEdgeStyle;rounded=0;orthogonalLoop=1;jettySize=auto;html=1;entryX=0.5;entryY=0;entryDx=0;entryDy=0;" edge="1" parent="1" source="8dt0aiZ_KcCfcYRELFO8-9" target="8dt0aiZ_KcCfcYRELFO8-16">
          <mxGeometry relative="1" as="geometry" />
        </mxCell>
        <mxCell id="8dt0aiZ_KcCfcYRELFO8-9" value="resArr = []&lt;br&gt;resInd = 0" style="rounded=1;whiteSpace=wrap;html=1;absoluteArcSize=1;arcSize=0;strokeWidth=2;" vertex="1" parent="1">
          <mxGeometry x="310" y="230" width="180" height="60" as="geometry" />
        </mxCell>
        <mxCell id="8dt0aiZ_KcCfcYRELFO8-21" style="edgeStyle=orthogonalEdgeStyle;rounded=0;orthogonalLoop=1;jettySize=auto;html=1;entryX=0.5;entryY=0;entryDx=0;entryDy=0;" edge="1" parent="1" source="8dt0aiZ_KcCfcYRELFO8-16" target="8dt0aiZ_KcCfcYRELFO8-20">
          <mxGeometry relative="1" as="geometry" />
        </mxCell>
        <mxCell id="8dt0aiZ_KcCfcYRELFO8-16" value="inpInd=0, inpArr.Length" style="shape=hexagon;perimeter=hexagonPerimeter2;whiteSpace=wrap;html=1;fixedSize=1;" vertex="1" parent="1">
          <mxGeometry x="320" y="330" width="160" height="50" as="geometry" />
        </mxCell>
        <mxCell id="8dt0aiZ_KcCfcYRELFO8-19" style="edgeStyle=orthogonalEdgeStyle;rounded=0;orthogonalLoop=1;jettySize=auto;html=1;entryX=0.5;entryY=0.117;entryDx=0;entryDy=0;entryPerimeter=0;" edge="1" parent="1" source="8dt0aiZ_KcCfcYRELFO8-1" target="8dt0aiZ_KcCfcYRELFO8-5">
          <mxGeometry relative="1" as="geometry" />
        </mxCell>
        <mxCell id="8dt0aiZ_KcCfcYRELFO8-25" value="" style="edgeStyle=orthogonalEdgeStyle;rounded=0;orthogonalLoop=1;jettySize=auto;html=1;" edge="1" parent="1" source="8dt0aiZ_KcCfcYRELFO8-20" target="8dt0aiZ_KcCfcYRELFO8-22">
          <mxGeometry relative="1" as="geometry" />
        </mxCell>
        <mxCell id="8dt0aiZ_KcCfcYRELFO8-28" style="edgeStyle=orthogonalEdgeStyle;rounded=0;orthogonalLoop=1;jettySize=auto;html=1;" edge="1" parent="1" source="8dt0aiZ_KcCfcYRELFO8-20">
          <mxGeometry relative="1" as="geometry">
            <mxPoint x="540" y="460" as="targetPoint" />
          </mxGeometry>
        </mxCell>
        <mxCell id="8dt0aiZ_KcCfcYRELFO8-20" value="inpArr[inpInd].Length &amp;lt;= 3" style="rhombus;whiteSpace=wrap;html=1;" vertex="1" parent="1">
          <mxGeometry x="320" y="420" width="160" height="80" as="geometry" />
        </mxCell>
        <mxCell id="8dt0aiZ_KcCfcYRELFO8-26" style="edgeStyle=orthogonalEdgeStyle;rounded=0;orthogonalLoop=1;jettySize=auto;html=1;entryX=0;entryY=0.5;entryDx=0;entryDy=0;" edge="1" parent="1" source="8dt0aiZ_KcCfcYRELFO8-22" target="8dt0aiZ_KcCfcYRELFO8-16">
          <mxGeometry relative="1" as="geometry">
            <Array as="points">
              <mxPoint x="400" y="640" />
              <mxPoint x="280" y="640" />
              <mxPoint x="280" y="355" />
            </Array>
          </mxGeometry>
        </mxCell>
        <mxCell id="8dt0aiZ_KcCfcYRELFO8-22" value="resArr.Resize(inpArr.Length+1)&lt;br&gt;resArr[resInd] = inpArr[inpInd]&lt;br&gt;resInd++" style="whiteSpace=wrap;html=1;" vertex="1" parent="1">
          <mxGeometry x="307.5" y="540" width="185" height="60" as="geometry" />
        </mxCell>
        <mxCell id="8dt0aiZ_KcCfcYRELFO8-27" style="edgeStyle=orthogonalEdgeStyle;rounded=0;orthogonalLoop=1;jettySize=auto;html=1;entryX=0.5;entryY=0;entryDx=0;entryDy=0;entryPerimeter=0;" edge="1" parent="1" source="8dt0aiZ_KcCfcYRELFO8-16" target="8dt0aiZ_KcCfcYRELFO8-6">
          <mxGeometry relative="1" as="geometry">
            <Array as="points">
              <mxPoint x="540" y="355" />
              <mxPoint x="540" y="670" />
              <mxPoint x="400" y="670" />
            </Array>
          </mxGeometry>
        </mxCell>
        <mxCell id="8dt0aiZ_KcCfcYRELFO8-30" value="End" style="strokeWidth=2;html=1;shape=mxgraph.flowchart.terminator;whiteSpace=wrap;" vertex="1" parent="1">
          <mxGeometry x="350" y="800" width="100" height="40" as="geometry" />
        </mxCell>
        <mxCell id="8dt0aiZ_KcCfcYRELFO8-31" style="edgeStyle=orthogonalEdgeStyle;rounded=0;orthogonalLoop=1;jettySize=auto;html=1;entryX=0.5;entryY=0;entryDx=0;entryDy=0;entryPerimeter=0;" edge="1" parent="1" source="8dt0aiZ_KcCfcYRELFO8-6" target="8dt0aiZ_KcCfcYRELFO8-30">
          <mxGeometry relative="1" as="geometry" />
        </mxCell>
        <mxCell id="8dt0aiZ_KcCfcYRELFO8-32" value="true" style="text;html=1;align=center;verticalAlign=middle;resizable=0;points=[];autosize=1;strokeColor=none;fillColor=none;" vertex="1" parent="1">
          <mxGeometry x="400" y="493" width="40" height="30" as="geometry" />
        </mxCell>
        <mxCell id="8dt0aiZ_KcCfcYRELFO8-33" value="false" style="text;html=1;align=center;verticalAlign=middle;resizable=0;points=[];autosize=1;strokeColor=none;fillColor=none;" vertex="1" parent="1">
          <mxGeometry x="465" y="428" width="50" height="30" as="geometry" />
        </mxCell>
      </root>
    </mxGraphModel>
  </diagram>
</mxfile>
